<svg xmlns="http://www.w3.org/2000/svg" viewBox="0 0 512 512" role="img" aria-label="每天长一点 App 图标">
  <defs>
    <linearGradient id="bg" x1="0" y1="0" x2="1" y2="1">
      <stop offset="0%" stop-color="#7ea4ff"/>
      <stop offset="100%" stop-color="#37d7a5"/>
    </linearGradient>
    <linearGradient id="glow" x1="0" y1="0" x2="1" y2="1">
      <stop offset="0%" stop-color="#ffffff" stop-opacity="0.85"/>
      <stop offset="100%" stop-color="#ffffff" stop-opacity="0.18"/>
    </linearGradient>
  </defs>
  <rect width="512" height="512" rx="128" fill="url(#bg)"/>
  <circle cx="388" cy="116" r="64" fill="url(#glow)"/>
  <rect x="96" y="112" width="320" height="236" rx="40" fill="#ffffff"/>
  <path d="M256 136v188" stroke="#d6e4ff" stroke-width="12" stroke-linecap="round"/>
  <path d="M140 176h78M140 214h78M140 252h56M294 176h78M294 214h78M294 252h56" stroke="#b7caf8" stroke-width="14" stroke-linecap="round"/>
  <path d="M160 140c28 0 63 10 96 30c33-20 68-30 96-30" stroke="#8aa6f4" stroke-width="12" stroke-linecap="round" fill="none"/>
  <circle cx="364" cy="368" r="72" fill="#ffffff"/>
  <path d="M331 368l23 23 43-52" fill="none" stroke="#22c55e" stroke-width="20" stroke-linecap="round" stroke-linejoin="round"/>
  <path d="M132 396c36-28 77-42 124-42c44 0 86 12 124 37" stroke="#eef6ff" stroke-width="24" stroke-linecap="round" fill="none" opacity="0.86"/>
</svg>
